<svg fill="none" height="24" viewBox="0 0 24 24" width="24" xmlns="http://www.w3.org/2000/svg"><g fill="#000"><path clip-rule="evenodd" d="m14.3158 4c-4.0404 0-7.3158 3.27539-7.3158 7.3158 0 4.0404 3.2754 7.3158 7.3158 7.3158 1.6592 0 3.1905-.5533 4.4176-1.484l3.1024 3.1024c.3905.3905 1.0237.3905 1.4142 0s.3905-1.0237 0-1.4142l-3.1024-3.1024c.9307-1.2271 1.484-2.7584 1.484-4.4176 0-4.04041-3.2754-7.3158-7.3158-7.3158zm-5.3158 7.3158c0-2.93584 2.38-5.3158 5.3158-5.3158s5.3158 2.37996 5.3158 5.3158c0 1.4682-.5939 2.7958-1.557 3.7588-.963.9631-2.2906 1.557-3.7588 1.557-2.9358 0-5.3158-2.38-5.3158-5.3158z" fill-rule="evenodd"/><path d="m0 16.5c0-.5523.447715-1 1-1h4c.55229 0 1 .4477 1 1s-.44771 1-1 1h-4c-.552285 0-1-.4477-1-1z"/><path d="m0 11.5c0-.5523.447715-1 1-1h3c.55229 0 1 .4477 1 1s-.44771 1-1 1h-3c-.552285 0-1-.4477-1-1z"/><path d="m0 6.5c0-.55228.447715-1 1-1h4c.55229 0 1 .44772 1 1 0 .55229-.44771 1-1 1h-4c-.552285 0-1-.44771-1-1z"/></g></svg>