<svg fill="#ffffff" height="24" viewBox="0 0 24 24" width="24" xmlns="http://www.w3.org/2000/svg"><g fill="#000"><path clip-rule="evenodd" d="m14.3158 4.5c-3.7643 0-6.8158 3.05153-6.8158 6.8158 0 3.7642 3.0515 6.8158 6.8158 6.8158 1.702 0 3.2589-.6244 4.453-1.6557l4.1277 4.1277.7071-.7071-4.1277-4.1277c1.0313-1.1941 1.6557-2.751 1.6557-4.453 0-3.76427-3.0516-6.8158-6.8158-6.8158zm-5.8158 6.8158c0-3.21198 2.6038-5.8158 5.8158-5.8158s5.8158 2.60382 5.8158 5.8158c0 1.6061-.6504 3.0594-1.7034 4.1124s-2.5063 1.7034-4.1124 1.7034c-3.212 0-5.8158-2.6038-5.8158-5.8158z" fill-rule="evenodd"/><path d="m6 15.5h-6v1h6z"/><path d="m5 11h-5v1h5z"/><path d="m6 6.5h-6v1h6z"/></g></svg>