<svg fill="none" height="24" viewBox="0 0 24 24" width="24" xmlns="http://www.w3.org/2000/svg"><path clip-rule="evenodd" d="m20.7341 4.95282c-1.128-1.12605-2.6567-1.75849-4.2506-1.75848-1.6259.00771-3.1849.64789-4.347 1.785l-.1365.12877-.1365-.12877c-1.1621-1.13711-2.72113-1.77729-4.34699-1.785-1.59386-.00001-3.12259.63243-4.25061 1.75848-1.12801 1.12604-1.76312 2.65367-1.7659 4.24753 0 3.23405 1.1865 4.77755 6.48901 8.96705l4.01099 3.1132 4.011-3.1132c5.3025-4.1895 6.489-5.733 6.489-8.96705-.0028-1.59386-.6379-3.12149-1.7659-4.24753zm-9.57.74127.0065.00637.8294.78248.8294-.78248.0065-.00637c.9758-.95484 2.2848-1.49266 3.65-1.49975 1.3281.00062 2.6017.52787 3.5417 1.4662.9403.93869 1.4699 2.21206 1.4724 3.5407-.0001 1.45066-.2541 2.42596-1.0636 3.53456-.8672 1.1874-2.3819 2.5424-5.042 4.6443l-3.3944 2.6346-3.39438-2.6346c-2.66009-2.1019-4.17481-3.4569-5.04197-4.6443-.80953-1.1086-1.06355-2.0839-1.06365-3.53456.00254-1.32864.53207-2.60201 1.47239-3.5407.93997-.93833 2.21366-1.46558 3.54175-1.4662 1.3652.00709 2.67416.54491 3.64996 1.49975z" fill="#000" fill-rule="evenodd"/></svg>