<svg height="24" viewBox="0 0 24 24" width="24" xmlns="http://www.w3.org/2000/svg"><path d="m11.8635 4.97934.1365.12877.1365-.12877c1.1621-1.1371 2.7211-1.77729 4.347-1.785 1.5939-.00001 3.1226.63243 4.2506 1.75848 1.128 1.12604 1.7631 2.65367 1.7659 4.24753 0 3.23405-1.1865 4.77755-6.489 8.96705l-4.011 3.1132-4.01099-3.1132c-5.30251-4.1895-6.48901-5.733-6.48901-8.96705.00278-1.59386.63789-3.12149 1.7659-4.24753 1.12802-1.12605 2.65675-1.75849 4.25061-1.75848 1.62586.00771 3.18489.6479 4.34699 1.785z" fill="#000"/></svg>