<svg fill="none" height="24" viewBox="0 0 24 24" width="24" xmlns="http://www.w3.org/2000/svg"><path clip-rule="evenodd" d="m3.58579 10.4142c-.37508.375-.58579.8837-.58579 1.4142v8.1716c0 .5522.44772 1 1 1h6c.5523 0 1-.4478 1-1v-5h2v5c0 .5522.4477 1 1 1h6c.5523 0 1-.4478 1-1v-8.1716c0-.5305-.2107-1.0392-.5858-1.4142l-7-7.00004c-.781-.78105-2.0474-.78105-2.8284 0zm7.41421 3.5858c-.5523 0-1 .4477-1 1v5h-6v-8.1716c0-.2653.10536-.5196.29289-.7071l7.00001-7.00004c.3905-.39052 1.0237-.39052 1.4142 0l7 7.00004c.1875.1875.2929.4419.2929.7071v8.1716h-6v-5c0-.5523-.4477-1-1-1z" fill="#000" fill-rule="evenodd"/></svg>