<svg fill="none" height="24" viewBox="0 0 24 24" width="24" xmlns="http://www.w3.org/2000/svg"><g clip-rule="evenodd" fill="#000" fill-rule="evenodd"><path d="m16 7c0 2.20914-1.7909 4-4 4-2.20914 0-4-1.79086-4-4s1.79086-4 4-4c2.2091 0 4 1.79086 4 4zm-1 0c0 1.65686-1.3431 3-3 3s-3-1.34314-3-3c0-1.65685 1.3431-3 3-3s3 1.34315 3 3z"/><path d="m20 17.1666c0-.4333-.1358-.8592-.4185-1.1876-1.8338-2.1302-4.5502-3.479-7.5815-3.479-3.03134 0-5.74765 1.3488-7.58153 3.479-.28271.3284-.41847.7543-.41847 1.1876v1.8334c0 1.1046.89543 2 2 2h12c1.1046 0 2-.8954 2-2zm-2 2.8334c.5523 0 1-.4477 1-1v-1.8334c0-.2299-.0719-.4139-.1763-.5352-1.652-1.9189-4.0957-3.1314-6.8237-3.1314-2.72798 0-5.17167 1.2125-6.82368 3.1314-.10446.1213-.17632.3053-.17632.5352v1.8334c0 .5523.44772 1 1 1z"/></g></svg>